PathFileType	4	(X/Y/Z)	s08c0403.trc
DataRate	CameraRate	NumFrames	NumMarkers	Units	OrigDataRate	OrigDataStartFrame	OrigNumFrames
200	200	4	50	mm	200	750	2000
Frame#	Time	racr			lacr			c7			jug			rlel			rdr			llel			ldr			s2			lic			ric			lasi			rasi			rpsi			lpsi			rgt			lgt			rth1			rth2			rth3			rth4			rlfc			rmfc			rsh1			rsh2			rsh3			rsh4			rlmal			rmmal			rcal			rtoe			rmt5			lth1			lth2			lth4			lth3			llfc			lmfc			llmal			lmmal			lcal			lmt5			lsh1			lsh2			lsh3			lsh4			ltoe			SBIKE			LBIKE			RBIKE			
		X1	Y1	Z1	X2	Y2	Z2	X3	Y3	Z3	X4	Y4	Z4	X5	Y5	Z5	X6	Y6	Z6	X7	Y7	Z7	X8	Y8	Z8	X9	Y9	Z9	X10	Y10	Z10	X11	Y11	Z11	X12	Y12	Z12	X13	Y13	Z13	X14	Y14	Z14	X15	Y15	Z15	X16	Y16	Z16	X17	Y17	Z17	X18	Y18	Z18	X19	Y19	Z19	X20	Y20	Z20	X21	Y21	Z21	X22	Y22	Z22	X23	Y23	Z23	X24	Y24	Z24	X25	Y25	Z25	X26	Y26	Z26	X27	Y27	Z27	X28	Y28	Z28	X29	Y29	Z29	X30	Y30	Z30	X31	Y31	Z31	X32	Y32	Z32	X33	Y33	Z33	X34	Y34	Z34	X35	Y35	Z35	X36	Y36	Z36	X37	Y37	Z37	X38	Y38	Z38	X39	Y39	Z39	X40	Y40	Z40	X41	Y41	Z41	X42	Y42	Z42	X43	Y43	Z43	X44	Y44	Z44	X45	Y45	Z45	X46	Y46	Z46	X47	Y47	Z47	X48	Y48	Z48	X49	Y49	Z49	X50	Y50	Z50	
750	3.7500	811.886318	1419.619790	-120.044484	797.841131	1333.087834	-463.970871	791.143870	1449.806663	-297.815745	738.956893	1299.925953	-263.942036	699.257300	1197.707764	30.833255	767.149536	930.189729	-61.762796	613.561656	1123.109727	-574.379433	744.766762	928.758910	-447.113465	236.100878	1251.786415	-176.854904	361.940525	1224.527500	-363.874662	432.066796	1245.051902	-52.382953	394.117046	1185.694484	-324.301091	437.628919	1179.713908	-87.900498	282.954784	1288.296537	-133.057404	261.823282	1291.526035	-226.651069	349.753503	1126.667144	-2.601595	292.348065	1124.973458	-376.758420	431.130517	972.599063	-21.343953	484.461612	904.313030	-40.548258	496.104487	819.087520	-52.031721	513.275309	919.741964	-57.231659	520.570019	711.043709	-76.719950	483.215395	714.732686	-183.332099	402.157939	657.008039	-38.805918	343.643526	591.536546	-57.174433	262.059787	562.718916	-56.527303	360.618726	571.256760	-89.626511	153.900704	506.386976	-57.533239	178.084592	505.234706	-147.341314	100.112547	563.839427	-106.304059	191.996354	277.931095	-108.255118	134.051378	352.901230	-40.940769	356.321810	1005.733562	-397.905911	418.351054	944.933851	-406.365496	450.181194	963.227318	-402.155498	441.586856	858.958626	-408.786652	490.252921	739.241561	-398.791872	499.970241	709.286139	-295.058288	321.575453	353.017534	-399.477714	369.176140	375.279625	-330.556832	250.697343	343.529772	-360.723975	437.584496	240.271580	-424.970634	439.953552	620.141501	-421.472805	426.604397	536.631253	-407.103651	373.614730	466.212049	-406.731716	449.738695	530.350532	-375.124400	525.316300	253.570298	-358.523501	-199.185621	921.592381	-230.867439	-8.984025	80.043384	-427.607980	-9.040550	80.375425	-29.492324	
751	3.7550	812.140458	1419.187955	-116.862306	796.784556	1334.962337	-461.335775	791.448427	1450.413932	-293.749683	738.097793	1300.773620	-260.672368	697.654741	1197.049049	33.636160	767.138029	930.252035	-61.725575	614.620109	1123.930236	-572.335080	745.553948	928.500772	-447.840685	234.794799	1250.430062	-179.695325	364.093201	1222.817417	-364.861263	429.467514	1245.512752	-53.180289	395.063696	1181.725887	-326.023919	437.093117	1179.338576	-88.651555	281.361944	1287.271807	-135.903170	261.821291	1289.261808	-230.066703	347.332522	1126.753955	-4.356774	292.953847	1120.441880	-377.616998	432.876344	973.856420	-21.532535	487.646880	907.111330	-41.578422	500.663817	822.040526	-53.881303	516.101783	923.259503	-58.015148	527.386147	715.445435	-79.017905	490.040395	719.009823	-185.424118	408.305049	663.205443	-40.661612	349.403069	598.478119	-57.731494	266.753065	571.115289	-57.859508	363.703488	576.881157	-94.281441	157.833813	516.625072	-58.273565	182.037924	515.381298	-148.206446	103.581482	573.977491	-106.750897	197.033986	288.524576	-108.478016	138.866287	363.319693	-41.144249	355.203089	999.733956	-397.994886	415.908104	937.571368	-405.478449	447.820340	954.752550	-401.204328	437.074216	851.035176	-406.742354	483.676722	731.791055	-396.225729	491.845937	702.102737	-292.374653	318.461824	344.121788	-399.873845	365.800518	366.148201	-330.774594	247.834557	335.571740	-361.440099	433.563937	229.616864	-424.555348	434.129692	612.460015	-419.641840	421.576405	528.688565	-405.854916	369.346947	457.766747	-406.321785	444.445556	522.574571	-373.693319	521.321077	241.788480	-357.749264	-199.164828	921.461581	-230.829199	-8.999893	80.017065	-427.598043	-9.040850	80.547737	-29.313796	
752	3.7600	812.498330	1418.318277	-113.553977	795.737733	1337.068389	-458.779981	791.879589	1450.808567	-289.620322	737.251176	1301.428207	-257.506111	695.878599	1196.171096	35.591097	767.020105	930.338655	-61.600791	615.670837	1124.958904	-570.086620	746.602747	928.330684	-448.162305	234.089111	1248.938883	-183.175410	366.382592	1221.114910	-365.831490	426.775300	1246.403501	-53.056620	396.012169	1178.191027	-327.435662	433.068937	1178.697021	-90.156535	280.854141	1285.253249	-139.958131	261.816398	1287.178806	-233.673444	344.606148	1126.977192	-5.933014	293.805294	1116.281793	-378.625785	434.323815	976.225183	-22.998515	490.737962	910.318153	-42.768673	506.049580	825.647570	-54.946514	519.182046	927.328079	-58.465688	534.047737	720.162386	-81.141383	496.980379	723.614974	-187.460667	414.479432	669.720859	-42.491717	354.556671	605.762117	-59.218969	271.575967	579.590970	-59.127044	370.229675	584.633142	-92.465972	161.939226	526.630861	-59.253659	186.300973	525.191219	-149.141094	107.295522	583.800156	-107.278609	202.961568	299.232280	-108.766896	144.273696	373.516515	-41.362268	354.391409	994.289541	-398.251536	413.331264	930.311789	-404.660891	445.880500	946.768768	-399.803532	432.242445	843.197604	-404.767410	476.617084	724.035514	-393.271834	482.848581	694.999264	-290.264878	314.719707	335.541159	-400.328827	361.891957	357.455646	-330.896561	244.406160	327.886976	-362.085126	428.901823	219.352293	-424.112004	427.593576	604.979647	-418.041108	415.928286	521.041494	-404.849917	364.468729	449.460235	-405.916306	438.576342	514.991010	-372.452861	516.576932	230.326325	-357.014637	-199.219812	921.407188	-230.907582	-8.986724	79.989270	-427.591448	-9.064465	80.518508	-29.284036	
753	3.7650	812.971442	1417.028332	-110.073316	793.960895	1338.506326	-453.683547	792.198428	1450.539528	-285.118201	735.826146	1301.687073	-253.611397	694.341435	1195.169511	37.626353	766.800213	930.377352	-61.438921	616.827226	1126.123758	-567.812843	747.723855	928.406476	-448.850003	233.456805	1247.544231	-186.906057	368.810865	1219.425872	-366.781192	423.825145	1246.994343	-53.886480	397.049436	1174.812470	-328.825207	431.042501	1179.428933	-90.236317	278.186348	1284.915501	-143.054359	261.970917	1285.239548	-237.425875	341.293474	1127.033039	-7.482415	294.916534	1112.642289	-379.748344	435.671362	978.372233	-24.199012	493.888575	913.686836	-43.296736	511.050589	829.585802	-56.395805	521.824989	931.300747	-59.134808	540.657361	725.261888	-82.943214	506.105527	727.605833	-188.168010	420.920540	676.249107	-44.119596	359.844428	613.053811	-60.698135	276.668626	587.893382	-60.508987	375.541541	592.458487	-92.809260	166.701781	536.401009	-60.224093	190.866391	534.534492	-150.033834	111.310923	593.204032	-108.033179	209.580512	309.560961	-108.974190	150.295258	383.404977	-41.697034	353.359080	988.958174	-398.606973	410.580489	923.415001	-403.835941	443.530609	939.062187	-398.798584	427.368601	836.332229	-403.690596	469.013721	716.630450	-390.778650	472.750009	688.073168	-288.732231	310.408833	327.234844	-400.584456	357.152035	349.041037	-330.996356	240.331556	320.496517	-362.646125	423.559593	209.462252	-423.739511	420.236472	597.709496	-416.947801	409.615685	513.407193	-403.827715	358.983217	441.345639	-405.511938	432.010683	508.796996	-373.579970	511.188646	219.099806	-356.346237	-199.278157	921.353917	-230.921341	-8.994127	79.952431	-427.600686	-9.111135	80.271696	-29.432529	
